<svg width="46" height="46" viewBox="0 0 46 46" fill="none" xmlns="http://www.w3.org/2000/svg">
<path d="M26.282 2.07375C24.7607 -0.69125 20.7567 -0.69125 19.233 2.07375C17.2293 5.71465 15.5776 9.53842 14.3003 13.4931C14.2401 13.6478 14.1341 13.7805 13.9966 13.8735C13.859 13.9664 13.6963 14.0152 13.5303 14.0134C10.1072 14.1024 6.6953 14.4424 3.32199 15.0308C0.202323 15.5744 -1.17201 19.3171 1.19866 21.6341C1.49732 21.9265 1.7991 22.2174 2.10399 22.5068C4.38789 24.6694 6.80615 26.6855 9.34432 28.5431C9.45963 28.6196 9.54699 28.7315 9.59327 28.8619C9.63956 28.9924 9.64226 29.1343 9.60099 29.2664C8.31961 33.111 7.404 37.068 6.86632 41.0847C6.42299 44.4074 9.94166 46.4467 12.688 45.0374C16.022 43.3287 19.21 41.3488 22.2197 39.1177C22.3773 39.0063 22.5656 38.9464 22.7587 38.9464C22.9517 38.9464 23.14 39.0063 23.2977 39.1177C26.3055 41.3514 29.4937 43.3315 32.8293 45.0374C35.5757 46.4467 39.0943 44.4074 38.651 41.0847C38.1141 37.0681 37.1992 33.1111 35.9187 29.2664C35.8774 29.1343 35.8801 28.9924 35.9264 28.8619C35.9727 28.7315 36.06 28.6196 36.1753 28.5431C39.0511 26.4381 41.7725 24.13 44.3187 21.6364C46.6893 19.3171 45.315 15.5744 42.1953 15.0308C38.8212 14.4423 35.4085 14.1023 31.9847 14.0134C31.819 14.0148 31.6569 13.9657 31.5198 13.8728C31.3827 13.7799 31.2771 13.6474 31.217 13.4931C29.9437 9.5369 28.2895 5.71275 26.282 2.07375Z" fill="#F1B100"/>
</svg>
