<svg width="37" height="46" viewBox="0 0 37 46" fill="none" xmlns="http://www.w3.org/2000/svg">
<path d="M7.12832 14.0614C6.91012 16.3889 6.75699 20.508 8.13129 22.2613C8.13129 22.2613 7.48433 17.7364 13.2839 12.0593C15.6191 9.77391 16.1589 6.66547 15.3435 4.33415C14.8803 3.01344 14.0343 1.92243 13.2993 1.16063C12.8705 0.712741 13.1997 -0.0260877 13.8237 0.000709186C17.5982 0.169147 23.7156 1.21805 26.3149 7.74118C27.4557 10.6046 27.5399 13.5638 26.9963 16.5727C26.6518 18.4944 25.4268 22.7666 28.2213 23.291C30.2157 23.6662 31.1804 22.0813 31.613 20.9406C31.7929 20.4659 32.4169 20.3472 32.7538 20.7262C36.1225 24.5581 36.4096 29.0715 35.7129 32.957C34.3654 40.4678 26.7589 45.9344 19.2022 45.9344C9.76207 45.9344 2.24746 40.5329 0.298944 30.7559C-0.485821 26.8091 -0.0876955 18.9997 5.99902 13.4872C6.45074 13.0738 7.18957 13.4413 7.12832 14.0614Z" fill="url(#paint0_radial_201_1330)"/>
<path d="M22.6513 28.1066C19.1715 23.6277 20.7295 18.5172 21.5832 16.4806C21.6981 16.2126 21.3918 15.96 21.1506 16.1246C19.6538 17.1429 16.5875 19.5393 15.1596 22.9119C13.2264 27.4712 13.3642 29.703 14.5088 32.4286C15.1979 34.0709 14.3978 34.4192 13.9959 34.4805C13.6054 34.5417 13.2456 34.2814 12.9584 34.0096C12.1326 33.2165 11.5441 32.2091 11.2588 31.1002C11.1975 30.8629 10.8874 30.7978 10.7458 30.993C9.67391 32.4745 9.11884 34.8518 9.09204 36.5323C9.00782 41.7271 13.2991 45.938 18.4901 45.938C25.0324 45.938 29.7984 38.7029 26.0392 32.6544C24.9481 30.8935 23.9222 29.7412 22.6513 28.1066Z" fill="url(#paint1_radial_201_1330)"/>
<defs>
<radialGradient id="paint0_radial_201_1330" cx="0" cy="0" r="1" gradientTransform="matrix(-27.0216 -0.117274 -0.192664 44.337 17.3325 46.0534)" gradientUnits="userSpaceOnUse">
<stop offset="0.314" stop-color="#FF9800"/>
<stop offset="0.662" stop-color="#FF6D00"/>
<stop offset="0.972" stop-color="#F44336"/>
</radialGradient>
<radialGradient id="paint1_radial_201_1330" cx="0" cy="0" r="1" gradientTransform="matrix(-0.285573 28.2717 21.2766 0.214886 18.8499 19.1635)" gradientUnits="userSpaceOnUse">
<stop offset="0.214" stop-color="#FFF176"/>
<stop offset="0.328" stop-color="#FFF27D"/>
<stop offset="0.487" stop-color="#FFF48F"/>
<stop offset="0.672" stop-color="#FFF7AD"/>
<stop offset="0.793" stop-color="#FFF9C4"/>
<stop offset="0.822" stop-color="#FFF8BD" stop-opacity="0.804"/>
<stop offset="0.863" stop-color="#FFF6AB" stop-opacity="0.529"/>
<stop offset="0.91" stop-color="#FFF38D" stop-opacity="0.209"/>
<stop offset="0.941" stop-color="#FFF176" stop-opacity="0"/>
</radialGradient>
</defs>
</svg>
