<svg width="44" height="44" viewBox="0 0 44 44" fill="none" xmlns="http://www.w3.org/2000/svg">
<path fill-rule="evenodd" clip-rule="evenodd" d="M11.9303 19.315C11.4922 18.8772 11.1447 18.3574 10.9076 17.7852C10.6705 17.213 10.5484 16.5998 10.5484 15.9804C10.5484 15.3611 10.6705 14.7478 10.9076 14.1756C11.1447 13.6035 11.4922 13.0837 11.9303 12.6459L23.1974 1.38185C23.6352 0.943769 24.1551 0.596247 24.7272 0.359143C25.2994 0.122039 25.9127 0 26.532 0C27.1513 0 27.7646 0.122039 28.3368 0.359143C28.9089 0.596247 29.4288 0.943769 29.8666 1.38185L34.8417 6.36014C35.7255 7.2442 36.222 8.44308 36.222 9.69314C36.222 10.9432 35.7255 12.1421 34.8417 13.0261L30.8911 16.9736L42.8026 28.8819C43.0213 29.101 43.1948 29.3611 43.313 29.6473C43.4312 29.9335 43.4919 30.2401 43.4916 30.5498C43.4913 30.8594 43.43 31.166 43.3113 31.4519C43.1925 31.7379 43.0186 31.9977 42.7994 32.2164C42.5803 32.4352 42.3202 32.6086 42.034 32.7268C41.7478 32.8451 41.4411 32.9058 41.1315 32.9055C40.8218 32.9052 40.5153 32.8439 40.2293 32.7251C39.9434 32.6064 39.6836 32.4324 39.4649 32.2133L27.5597 20.3113L23.5746 24.2933C22.6906 25.1761 21.4924 25.672 20.2431 25.672C18.9939 25.672 17.7956 25.1761 16.9117 24.2933L11.9303 19.315ZM3.92857 38.5304H2.35714C1.73199 38.5304 1.13244 38.7788 0.690391 39.2208C0.248341 39.6629 0 40.2624 0 40.8876C0 41.5127 0.248341 42.1123 0.690391 42.5543C1.13244 42.9964 1.73199 43.2447 2.35714 43.2447H25.9286C26.5537 43.2447 27.1533 42.9964 27.5953 42.5543C28.0374 42.1123 28.2857 41.5127 28.2857 40.8876C28.2857 40.2624 28.0374 39.6629 27.5953 39.2208C27.1533 38.7788 26.5537 38.5304 25.9286 38.5304H24.3571V33.0304C24.3571 32.6137 24.1916 32.214 23.8969 31.9193C23.6022 31.6246 23.2025 31.459 22.7857 31.459H5.5C5.08323 31.459 4.68353 31.6246 4.38883 31.9193C4.09413 32.214 3.92857 32.6137 3.92857 33.0304V38.5304Z" fill="black"/>
</svg>
